<?xml version="1.0" encoding="utf-8"?>
<!-- Generator: Adobe Illustrator 23.0.3, SVG Export Plug-In . SVG Version: 6.00 Build 0)  -->
<svg version="1.1" id="Layer_1" xmlns="http://www.w3.org/2000/svg" xmlns:xlink="http://www.w3.org/1999/xlink" x="0px" y="0px"
	 viewBox="0 0 302.63 173.15" style="enable-background:new 0 0 302.63 173.15;" xml:space="preserve">
<style type="text/css">
	.st0{fill:#CC00CC;}
	.st1{font-family:'Alegreya Sans', sans-serif; font-weight:700; font-variant: small-caps;}
	.st2{font-size:16px;}
	.st3{font-family:'Alegreya Sans', sans-serif; font-weight:700; font-variant: small-caps; font-style: italic;}
	.st4{fill:none;stroke:#000000;stroke-width:0.5;stroke-miterlimit:10;}
</style>
<text transform="matrix(1 0 0 1 116.2651 152.7621)"><tspan x="0" y="0" class="st0 st1 st2">meso-level</tspan><tspan x="9.01" y="16" class="st0 st1 st2">(</tspan><tspan x="13.73" y="16" class="st0 st3 st2">hybrid</tspan><tspan x="60.72" y="16" class="st0 st1 st2">)</tspan></text>
<text transform="matrix(1 0 0 1 222.8354 13.1522)" class="st0 st1 st2">micro-level</text>
<text transform="matrix(1 0 0 1 -0.4883 13.1531)" class="st0 st1 st2">macro-level</text>
<g>
	<g>
		<line class="st4" x1="94.04" y1="13.15" x2="212.95" y2="13.15"/>
		<g>
			<polygon points="95.69,15.2 96.03,14.83 94.23,13.15 96.03,11.47 95.69,11.11 93.49,13.15 			"/>
		</g>
		<g>
			<polygon points="211.29,15.2 210.95,14.83 212.76,13.15 210.95,11.47 211.29,11.11 213.49,13.15 			"/>
		</g>
	</g>
</g>
<g>
	<g>
		<line class="st4" x1="226.83" y1="26.19" x2="167.1" y2="129.64"/>
		<g>
			<polygon points="166.16,127.19 166.65,127.07 167.2,129.48 169.55,128.75 169.7,129.23 166.83,130.11 			"/>
		</g>
	</g>
</g>
<g>
	<g>
		<line class="st4" x1="139.99" y1="129.64" x2="80.26" y2="26.19"/>
		<g>
			<polygon points="140.93,127.19 140.44,127.07 139.89,129.48 137.54,128.75 137.39,129.23 140.26,130.11 			"/>
		</g>
	</g>
</g>
</svg>
